<svg width="19" height="17" viewBox="0 0 19 17" fill="none" xmlns="http://www.w3.org/2000/svg">
<path d="M17.8833 16.55C16.8333 16.525 15.8083 16.525 14.7583 16.55C14.5333 16.55 14.4833 16.5 14.4833 16.275C14.4833 14.425 14.4833 12.55 14.4833 10.7C14.4833 10.275 14.4583 9.84997 14.3333 9.44997C13.9583 8.14997 12.4583 7.67497 11.3833 8.54997C10.8083 8.99997 10.5833 9.62497 10.5833 10.375C10.5833 12.125 10.5833 13.875 10.5833 15.625C10.5833 15.85 10.5583 16.075 10.5833 16.325C10.6083 16.525 10.5083 16.575 10.3333 16.55C9.25833 16.55 8.20833 16.55 7.13333 16.55C6.93333 16.55 6.88333 16.5 6.88333 16.3C6.90833 14.725 6.90833 13.15 6.90833 11.55C6.90833 9.59997 6.90833 7.64997 6.88333 5.72497C6.88333 5.49997 6.93333 5.44997 7.13333 5.44997C8.20833 5.44997 9.25833 5.44997 10.3333 5.44997C10.5333 5.44997 10.5833 5.49997 10.5833 5.69997C10.5833 6.09997 10.5833 6.49997 10.5833 6.97497C10.6583 6.89997 10.6833 6.87497 10.7083 6.84997C11.6833 5.42497 13.0583 5.02497 14.6833 5.27497C16.5583 5.57497 17.7583 6.87497 18.0583 8.87497C18.1333 9.34997 18.1583 9.82497 18.1583 10.3C18.1583 12.3 18.1583 14.275 18.1583 16.275C18.1583 16.475 18.1083 16.55 17.8833 16.55Z" fill="white"/>
<path d="M4.88334 11C4.88334 12.75 4.88334 14.5 4.88334 16.25C4.88334 16.475 4.83334 16.55 4.60834 16.55C3.55834 16.525 2.50834 16.55 1.45834 16.55C1.25834 16.55 1.20834 16.5 1.20834 16.3C1.20834 12.775 1.20834 9.22495 1.20834 5.69995C1.20834 5.52495 1.25834 5.44995 1.45834 5.44995C2.53334 5.44995 3.60834 5.44995 4.68334 5.44995C4.90834 5.44995 4.93334 5.52495 4.93334 5.72495C4.88334 7.47495 4.88334 9.22495 4.88334 11Z" fill="white"/>
<path d="M5.05835 2.55001C4.80835 3.55001 3.78335 4.12501 2.60835 3.92501C1.35835 3.72501 0.658348 2.50001 1.10835 1.30001C1.40835 0.550013 2.13335 0.100013 3.05835 0.125013C4.45835 0.100013 5.38335 1.22501 5.05835 2.55001Z" fill="white"/>
</svg>
